# MagicaVoxel @ Ephtracy

# group
o 

# material
mtllib paths3.mtl
usemtl palette

# normals
vn -1 0 0
vn 1 0 0
vn 0 0 1
vn 0 0 -1
vn 0 -1 0
vn 0 1 0

# texcoords
vt 0.775391 0.5
vt 0.990234 0.5

# verts
v -3.2 5.9 6.1
v -3.2 5.9 -6.1
v -3.2 6 6.1
v -3.2 6 -6.1
v -3.1 0 6.1
v -3.1 0 6
v -3.1 0 -6
v -3.1 0 -6.1
v -3.1 5.9 6.1
v -3.1 5.9 6
v -3.1 5.9 -6
v -3.1 5.9 -6.1
v -3 0 6
v -3 0 -6
v -3 5.9 6
v -3 5.9 -6
v 2.5 5.9 6.1
v 2.5 5.9 2.6
v 2.5 5.9 -2.5
v 2.5 5.9 -6.1
v 2.5 6 6.1
v 2.5 6 2.6
v 2.5 6 -2.5
v 2.5 6 -6.1
v 2.6 0 6.1
v 2.6 0 6
v 2.6 0 -6
v 2.6 0 -6.1
v 2.6 0.1 6
v 2.6 0.1 2.8
v 2.6 0.1 2.7
v 2.6 0.1 -2.6
v 2.6 0.1 -2.7
v 2.6 0.1 -6
v 2.6 5.9 6.1
v 2.6 5.9 6
v 2.6 5.9 2.8
v 2.6 5.9 2.7
v 2.6 5.9 -2.6
v 2.6 5.9 -2.7
v 2.6 5.9 -6
v 2.6 5.9 -6.1
v -2.7 0 6.1
v -2.7 0 6
v -2.7 0 -6
v -2.7 0 -6.1
v -2.7 0.1 6
v -2.7 0.1 -6
v -2.7 5.9 6.1
v -2.7 5.9 6
v -2.7 5.9 -6
v -2.7 5.9 -6.1
v -2.6 5.9 6.1
v -2.6 5.9 -6.1
v -2.6 6 6.1
v -2.6 6 -6.1
v 3 0 6.1
v 3 0 5.9
v 3 0 2.8
v 3 0 2.7
v 3 0 -2.6
v 3 0 -2.7
v 3 0 -6
v 3 0 -6.1
v 3 0.1 6
v 3 0.1 5.9
v 3 0.1 2.7
v 3 0.1 -2.6
v 3 5.9 6.1
v 3 5.9 6
v 3 5.9 2.8
v 3 5.9 2.7
v 3 5.9 -2.6
v 3 5.9 -2.7
v 3 5.9 -6
v 3 5.9 -6.1
v 3.1 5.9 6.1
v 3.1 5.9 2.6
v 3.1 5.9 -2.5
v 3.1 5.9 -6.1
v 3.1 6 6.1
v 3.1 6 2.6
v 3.1 6 -2.5
v 3.1 6 -6.1
v -3.2 5.9 6.1
v -3.2 6 6.1
v -3.1 0 6.1
v -3.1 5.9 6.1
v -3 0.1 6.1
v -3 5.9 6.1
v -2.8 0.1 6.1
v -2.8 5.9 6.1
v -2.7 0 6.1
v -2.7 5.9 6.1
v -2.6 5.9 6.1
v -2.6 6 6.1
v 2.5 5.9 6.1
v 2.5 6 6.1
v 2.6 0 6.1
v 2.6 5.9 6.1
v 2.7 0.1 6.1
v 2.7 5.9 6.1
v 2.9 0.1 6.1
v 2.9 5.9 6.1
v 3 0 6.1
v 3 5.9 6.1
v 3.1 5.9 6.1
v 3.1 6 6.1
v -2.7 0 6
v -2.7 0.1 6
v 2.6 0 6
v 2.6 0.1 6
v 2.5 5.9 -2.5
v 2.5 6 -2.5
v 3.1 5.9 -2.5
v 3.1 6 -2.5
v 2.6 0.1 -2.6
v 2.6 5.9 -2.6
v 2.7 0.1 -2.6
v 2.7 5.9 -2.6
v 2.9 0.1 -2.6
v 2.9 5.9 -2.6
v 3 0.1 -2.6
v 3 5.9 -2.6
v -3.1 0 -6
v -3.1 5.9 -6
v -3 0 -6
v -3 5.9 -6
v -3.1 0 6
v -3.1 5.9 6
v -3 0 6
v -3 5.9 6
v 2.6 0.1 2.7
v 2.6 5.9 2.7
v 2.7 0.1 2.7
v 2.7 5.9 2.7
v 2.9 0.1 2.7
v 2.9 5.9 2.7
v 3 0.1 2.7
v 3 5.9 2.7
v 2.5 5.9 2.6
v 2.5 6 2.6
v 3.1 5.9 2.6
v 3.1 6 2.6
v -2.7 0 -6
v -2.7 0.1 -6
v 2.6 0 -6
v 2.6 0.1 -6
v -3.2 5.9 -6.1
v -3.2 6 -6.1
v -3.1 0 -6.1
v -3.1 5.9 -6.1
v -3 0.1 -6.1
v -3 5.9 -6.1
v -2.8 0.1 -6.1
v -2.8 5.9 -6.1
v -2.7 0 -6.1
v -2.7 5.9 -6.1
v -2.6 5.9 -6.1
v -2.6 6 -6.1
v 2.5 5.9 -6.1
v 2.5 6 -6.1
v 2.6 0 -6.1
v 2.6 5.9 -6.1
v 2.7 0.1 -6.1
v 2.7 5.9 -6.1
v 2.9 0.1 -6.1
v 2.9 5.9 -6.1
v 3 0 -6.1
v 3 5.9 -6.1
v 3.1 5.9 -6.1
v 3.1 6 -6.1
v -3.1 0 6.1
v -2.7 0 6.1
v 2.6 0 6.1
v 3 0 6.1
v -3.1 0 6
v -3 0 6
v -2.7 0 6
v 2.6 0 6
v 2.9 0 6
v 2.9 0 5.9
v 3 0 5.9
v 2.6 0 2.8
v 2.7 0 2.8
v 2.9 0 2.8
v 3 0 2.8
v 2.6 0 2.7
v 2.7 0 2.7
v 2.9 0 2.7
v 3 0 2.7
v 2.9 0 -2.6
v 3 0 -2.6
v 2.9 0 -2.7
v 3 0 -2.7
v -3.1 0 -6
v -3 0 -6
v -2.7 0 -6
v 2.6 0 -6
v 3 0 -6
v -3.1 0 -6.1
v -2.7 0 -6.1
v 2.6 0 -6.1
v 3 0 -6.1
v -3.2 5.9 6.1
v -3.1 5.9 6.1
v -2.7 5.9 6.1
v -2.6 5.9 6.1
v 2.5 5.9 6.1
v 2.6 5.9 6.1
v 3 5.9 6.1
v 3.1 5.9 6.1
v -3.1 5.9 6
v -3 5.9 6
v -2.7 5.9 6
v 2.6 5.9 6
v 3 5.9 6
v 2.6 5.9 2.8
v 3 5.9 2.8
v 2.6 5.9 2.7
v 2.7 5.9 2.7
v 2.9 5.9 2.7
v 3 5.9 2.7
v 2.5 5.9 2.6
v 3.1 5.9 2.6
v 2.5 5.9 -2.5
v 3.1 5.9 -2.5
v 2.6 5.9 -2.6
v 2.7 5.9 -2.6
v 2.9 5.9 -2.6
v 3 5.9 -2.6
v 2.6 5.9 -2.7
v 3 5.9 -2.7
v -3.1 5.9 -6
v -3 5.9 -6
v -2.7 5.9 -6
v 2.6 5.9 -6
v 3 5.9 -6
v -3.2 5.9 -6.1
v -3.1 5.9 -6.1
v -2.7 5.9 -6.1
v -2.6 5.9 -6.1
v 2.5 5.9 -6.1
v 2.6 5.9 -6.1
v 3 5.9 -6.1
v 3.1 5.9 -6.1
v -2.7 0.1 6
v 2.6 0.1 6
v 2.6 0.1 2.8
v 2.6 0.1 2.7
v 2.7 0.1 2.7
v 2.9 0.1 2.7
v 3 0.1 2.7
v 2.6 0.1 -2.6
v 2.7 0.1 -2.6
v 2.9 0.1 -2.6
v 3 0.1 -2.6
v 2.6 0.1 -2.7
v -2.7 0.1 -6
v 2.6 0.1 -6
v -3.2 6 6.1
v -2.6 6 6.1
v 2.5 6 6.1
v 3.1 6 6.1
v -3.1 6 6
v -2.7 6 6
v 2.6 6 6
v 3 6 6
v 2.6 6 2.7
v 3 6 2.7
v 2.5 6 2.6
v 3.1 6 2.6
v 2.5 6 -2.5
v 3.1 6 -2.5
v 2.6 6 -2.6
v 3 6 -2.6
v -3.1 6 -6
v -2.7 6 -6
v 2.6 6 -6
v 3 6 -6
v -3.2 6 -6.1
v -2.6 6 -6.1
v 2.5 6 -6.1
v 3.1 6 -6.1

# faces
f 3/1/1 2/1/1 1/1/1
f 4/1/1 2/1/1 3/1/1
f 9/1/1 6/1/1 5/1/1
f 10/1/1 6/1/1 9/1/1
f 11/1/1 8/1/1 7/1/1
f 12/1/1 8/1/1 11/1/1
f 15/2/1 14/2/1 13/2/1
f 16/2/1 14/2/1 15/2/1
f 21/1/1 18/1/1 17/1/1
f 22/1/1 18/1/1 21/1/1
f 23/1/1 20/1/1 19/1/1
f 24/1/1 20/1/1 23/1/1
f 29/1/1 26/1/1 25/1/1
f 34/1/1 28/1/1 27/1/1
f 35/1/1 29/1/1 25/1/1
f 36/2/1 30/2/1 29/2/1
f 36/1/1 29/1/1 35/1/1
f 37/1/1 31/1/1 30/1/1
f 37/2/1 30/2/1 36/2/1
f 38/1/1 31/1/1 37/1/1
f 39/1/1 33/1/1 32/1/1
f 40/2/1 34/2/1 33/2/1
f 40/1/1 33/1/1 39/1/1
f 41/1/1 28/1/1 34/1/1
f 41/2/1 34/2/1 40/2/1
f 42/1/1 28/1/1 41/1/1
f 43/1/2 44/1/2 47/1/2
f 45/1/2 46/1/2 48/1/2
f 43/1/2 47/1/2 49/1/2
f 47/2/2 48/2/2 50/2/2
f 49/1/2 47/1/2 50/1/2
f 48/1/2 46/1/2 51/1/2
f 50/2/2 48/2/2 51/2/2
f 51/1/2 46/1/2 52/1/2
f 53/1/2 54/1/2 55/1/2
f 55/1/2 54/1/2 56/1/2
f 57/1/2 58/1/2 65/1/2
f 58/2/2 59/2/2 66/2/2
f 65/1/2 58/1/2 66/1/2
f 59/1/2 60/1/2 67/1/2
f 60/2/2 61/2/2 67/2/2
f 61/1/2 62/1/2 68/1/2
f 67/2/2 61/2/2 68/2/2
f 57/1/2 65/1/2 69/1/2
f 65/2/2 66/2/2 70/2/2
f 69/1/2 65/1/2 70/1/2
f 66/2/2 59/2/2 71/2/2
f 70/2/2 66/2/2 71/2/2
f 59/1/2 67/1/2 71/1/2
f 71/1/2 67/1/2 72/1/2
f 68/1/2 62/1/2 73/1/2
f 62/2/2 63/2/2 74/2/2
f 73/1/2 62/1/2 74/1/2
f 63/1/2 64/1/2 75/1/2
f 74/2/2 63/2/2 75/2/2
f 75/1/2 64/1/2 76/1/2
f 77/1/2 78/1/2 81/1/2
f 81/1/2 78/1/2 82/1/2
f 79/1/2 80/1/2 83/1/2
f 83/1/2 80/1/2 84/1/2
f 88/1/3 86/1/3 85/1/3
f 89/1/3 88/1/3 87/1/3
f 90/1/3 86/1/3 88/1/3
f 90/1/3 88/1/3 89/1/3
f 91/1/3 89/1/3 87/1/3
f 91/2/3 90/2/3 89/2/3
f 92/1/3 86/1/3 90/1/3
f 92/2/3 90/2/3 91/2/3
f 93/1/3 91/1/3 87/1/3
f 93/1/3 92/1/3 91/1/3
f 94/1/3 86/1/3 92/1/3
f 94/1/3 92/1/3 93/1/3
f 95/1/3 86/1/3 94/1/3
f 96/1/3 86/1/3 95/1/3
f 100/1/3 98/1/3 97/1/3
f 101/1/3 100/1/3 99/1/3
f 102/1/3 98/1/3 100/1/3
f 102/1/3 100/1/3 101/1/3
f 103/1/3 101/1/3 99/1/3
f 103/2/3 102/2/3 101/2/3
f 104/1/3 98/1/3 102/1/3
f 104/2/3 102/2/3 103/2/3
f 105/1/3 103/1/3 99/1/3
f 105/1/3 104/1/3 103/1/3
f 106/1/3 98/1/3 104/1/3
f 106/1/3 104/1/3 105/1/3
f 107/1/3 98/1/3 106/1/3
f 108/1/3 98/1/3 107/1/3
f 111/2/3 110/2/3 109/2/3
f 112/2/3 110/2/3 111/2/3
f 115/1/3 114/1/3 113/1/3
f 116/1/3 114/1/3 115/1/3
f 119/1/3 118/1/3 117/1/3
f 120/1/3 118/1/3 119/1/3
f 121/2/3 120/2/3 119/2/3
f 122/2/3 120/2/3 121/2/3
f 123/1/3 122/1/3 121/1/3
f 124/1/3 122/1/3 123/1/3
f 127/1/3 126/1/3 125/1/3
f 128/1/3 126/1/3 127/1/3
f 129/1/4 130/1/4 131/1/4
f 131/1/4 130/1/4 132/1/4
f 133/1/4 134/1/4 135/1/4
f 135/1/4 134/1/4 136/1/4
f 135/2/4 136/2/4 137/2/4
f 137/2/4 136/2/4 138/2/4
f 137/1/4 138/1/4 139/1/4
f 139/1/4 138/1/4 140/1/4
f 141/1/4 142/1/4 143/1/4
f 143/1/4 142/1/4 144/1/4
f 145/2/4 146/2/4 147/2/4
f 147/2/4 146/2/4 148/2/4
f 149/1/4 150/1/4 152/1/4
f 151/1/4 152/1/4 153/1/4
f 152/1/4 150/1/4 154/1/4
f 153/1/4 152/1/4 154/1/4
f 151/1/4 153/1/4 155/1/4
f 153/2/4 154/2/4 155/2/4
f 154/1/4 150/1/4 156/1/4
f 155/2/4 154/2/4 156/2/4
f 151/1/4 155/1/4 157/1/4
f 155/1/4 156/1/4 157/1/4
f 156/1/4 150/1/4 158/1/4
f 157/1/4 156/1/4 158/1/4
f 158/1/4 150/1/4 159/1/4
f 159/1/4 150/1/4 160/1/4
f 161/1/4 162/1/4 164/1/4
f 163/1/4 164/1/4 165/1/4
f 164/1/4 162/1/4 166/1/4
f 165/1/4 164/1/4 166/1/4
f 163/1/4 165/1/4 167/1/4
f 165/2/4 166/2/4 167/2/4
f 166/1/4 162/1/4 168/1/4
f 167/2/4 166/2/4 168/2/4
f 163/1/4 167/1/4 169/1/4
f 167/1/4 168/1/4 169/1/4
f 168/1/4 162/1/4 170/1/4
f 169/1/4 168/1/4 170/1/4
f 170/1/4 162/1/4 171/1/4
f 171/1/4 162/1/4 172/1/4
f 177/1/5 174/1/5 173/1/5
f 178/1/5 174/1/5 177/1/5
f 179/1/5 174/1/5 178/1/5
f 180/1/5 176/1/5 175/1/5
f 181/1/5 176/1/5 180/1/5
f 182/2/5 179/2/5 178/2/5
f 182/1/5 176/1/5 181/1/5
f 182/2/5 181/2/5 180/2/5
f 182/2/5 180/2/5 179/2/5
f 183/1/5 176/1/5 182/1/5
f 184/2/5 182/2/5 178/2/5
f 184/2/5 183/2/5 182/2/5
f 185/2/5 183/2/5 184/2/5
f 186/2/5 183/2/5 185/2/5
f 187/2/5 183/2/5 186/2/5
f 188/2/5 184/2/5 178/2/5
f 188/1/5 185/1/5 184/1/5
f 189/2/5 186/2/5 185/2/5
f 189/1/5 185/1/5 188/1/5
f 190/1/5 187/1/5 186/1/5
f 190/2/5 186/2/5 189/2/5
f 191/1/5 187/1/5 190/1/5
f 192/2/5 189/2/5 188/2/5
f 192/2/5 190/2/5 189/2/5
f 192/2/5 191/2/5 190/2/5
f 193/2/5 191/2/5 192/2/5
f 194/2/5 192/2/5 188/2/5
f 194/1/5 193/1/5 192/1/5
f 195/1/5 193/1/5 194/1/5
f 197/2/5 188/2/5 178/2/5
f 197/2/5 194/2/5 188/2/5
f 197/2/5 195/2/5 194/2/5
f 198/2/5 195/2/5 197/2/5
f 199/2/5 195/2/5 198/2/5
f 200/2/5 195/2/5 199/2/5
f 201/1/5 197/1/5 196/1/5
f 201/1/5 198/1/5 197/1/5
f 202/1/5 198/1/5 201/1/5
f 203/1/5 200/1/5 199/1/5
f 204/1/5 200/1/5 203/1/5
f 213/1/5 206/1/5 205/1/5
f 215/1/5 208/1/5 207/1/5
f 216/1/5 210/1/5 209/1/5
f 217/1/5 212/1/5 211/1/5
f 218/1/5 216/1/5 209/1/5
f 219/1/5 212/1/5 217/1/5
f 220/1/5 218/1/5 209/1/5
f 223/1/5 212/1/5 219/1/5
f 224/1/5 222/1/5 221/1/5
f 224/1/5 223/1/5 222/1/5
f 224/1/5 220/1/5 209/1/5
f 224/1/5 221/1/5 220/1/5
f 225/1/5 212/1/5 223/1/5
f 225/1/5 223/1/5 224/1/5
f 228/1/5 227/1/5 226/1/5
f 229/1/5 227/1/5 228/1/5
f 230/1/5 227/1/5 229/1/5
f 231/1/5 227/1/5 230/1/5
f 232/1/5 228/1/5 226/1/5
f 233/1/5 227/1/5 231/1/5
f 234/2/5 214/2/5 213/2/5
f 234/1/5 213/1/5 205/1/5
f 235/2/5 214/2/5 234/2/5
f 236/1/5 208/1/5 215/1/5
f 237/1/5 232/1/5 226/1/5
f 238/1/5 227/1/5 233/1/5
f 239/1/5 234/1/5 205/1/5
f 240/1/5 234/1/5 239/1/5
f 241/1/5 208/1/5 236/1/5
f 242/1/5 208/1/5 241/1/5
f 243/1/5 237/1/5 226/1/5
f 244/1/5 237/1/5 243/1/5
f 245/1/5 227/1/5 238/1/5
f 246/1/5 227/1/5 245/1/5
f 247/2/6 248/2/6 249/2/6
f 247/2/6 249/2/6 250/2/6
f 247/2/6 250/2/6 254/2/6
f 252/2/6 253/2/6 254/2/6
f 251/2/6 252/2/6 254/2/6
f 250/2/6 251/2/6 254/2/6
f 254/2/6 253/2/6 255/2/6
f 255/2/6 253/2/6 256/2/6
f 256/2/6 253/2/6 257/2/6
f 247/2/6 254/2/6 258/2/6
f 247/2/6 258/2/6 259/2/6
f 259/2/6 258/2/6 260/2/6
f 261/1/6 262/1/6 265/1/6
f 265/1/6 262/1/6 266/1/6
f 263/1/6 264/1/6 267/1/6
f 267/1/6 264/1/6 268/1/6
f 263/1/6 267/1/6 269/1/6
f 267/2/6 268/2/6 269/2/6
f 268/1/6 264/1/6 270/1/6
f 269/2/6 268/2/6 270/2/6
f 263/1/6 269/1/6 271/1/6
f 269/1/6 270/1/6 271/1/6
f 270/1/6 264/1/6 272/1/6
f 271/1/6 270/1/6 272/1/6
f 273/1/6 274/1/6 275/1/6
f 275/1/6 274/1/6 276/1/6
f 261/1/6 265/1/6 277/1/6
f 265/2/6 266/2/6 277/2/6
f 266/1/6 262/1/6 278/1/6
f 277/2/6 266/2/6 278/2/6
f 275/2/6 276/2/6 279/2/6
f 273/1/6 275/1/6 279/1/6
f 276/1/6 274/1/6 280/1/6
f 279/2/6 276/2/6 280/2/6
f 261/1/6 277/1/6 281/1/6
f 277/1/6 278/1/6 281/1/6
f 278/1/6 262/1/6 282/1/6
f 281/1/6 278/1/6 282/1/6
f 273/1/6 279/1/6 283/1/6
f 279/1/6 280/1/6 283/1/6
f 280/1/6 274/1/6 284/1/6
f 283/1/6 280/1/6 284/1/6
